<svg version="1.1" id="Layer_1" xmlns="http://www.w3.org/2000/svg" xmlns:xlink="http://www.w3.org/1999/xlink" x="0px" y="0px"
	 width="100%" viewBox="0 0 512 512" enable-background="new 0 0 512 512" xml:space="preserve">
<path fill="#000000" opacity="0.000000" stroke="none" 
	d="
M242.000000,513.000000 
	C161.352890,513.000000 81.205780,513.000000 1.029336,513.000000 
	C1.029336,342.394531 1.029336,171.789062 1.029336,1.091791 
	C171.563797,1.091791 342.127655,1.091791 512.845764,1.091791 
	C512.845764,171.666565 512.845764,342.333252 512.845764,513.000000 
	C422.789032,513.000000 332.644501,513.000000 242.000000,513.000000 
M94.492065,347.000000 
	C98.927422,347.000000 103.362770,347.000000 108.178299,347.000000 
	C108.178299,324.690186 108.178299,302.948914 108.178299,281.293427 
	C126.986015,281.293427 145.391647,281.293427 164.193970,281.293427 
	C164.193970,303.325684 164.193970,325.066956 164.193970,346.748474 
	C185.699463,346.748474 206.803391,346.748474 227.185684,346.748474 
	C228.275879,344.178589 229.416199,342.218170 229.947922,340.104675 
	C231.750427,332.940216 233.345505,325.723419 235.002380,318.522614 
	C235.514130,316.298462 236.240189,314.878021 239.149643,314.916595 
	C253.146851,315.102264 267.148926,314.926605 281.145844,315.122833 
	C282.431976,315.140869 284.498749,316.660126 284.826660,317.858795 
	C286.180969,322.809662 286.986725,327.909393 288.030884,332.946777 
	C288.652374,335.944855 289.116943,339.002625 290.065460,341.898102 
	C290.998688,344.747070 292.074341,347.168213 296.261658,347.119568 
	C318.258148,346.864014 340.261353,347.182953 362.257904,346.929352 
	C374.848877,346.784210 387.470581,348.137512 399.969513,344.197266 
	C408.742249,341.431732 417.614441,338.779572 425.137329,333.734436 
	C431.767822,329.287811 438.867554,325.025085 443.185089,317.525574 
	C447.481171,310.063385 453.992828,303.669037 457.217621,295.851379 
	C461.090149,286.463470 463.831024,276.168427 464.617523,266.075745 
	C465.355652,256.603729 466.318207,246.862976 463.328094,237.093872 
	C461.394073,230.775253 460.917023,223.882248 459.396912,217.241364 
	C457.015076,206.836197 451.271271,198.611557 445.020660,191.013412 
	C438.498169,183.084793 429.253174,177.470657 419.716431,173.564117 
	C411.177429,170.066299 401.950409,168.057297 392.867767,166.149124 
	C387.451691,165.011246 381.730347,165.080399 376.143524,165.045959 
	C356.811371,164.926743 337.478027,165.000000 318.145142,165.000000 
	C316.533478,165.000000 314.921783,165.000000 312.502075,165.000000 
	C312.502075,180.624573 312.502075,195.784515 312.502075,210.944458 
	C310.251068,206.168137 308.447418,201.560806 307.038635,196.835770 
	C304.564514,188.537582 302.727142,180.022797 299.760651,171.914276 
	C298.856354,169.442551 299.240997,164.856049 293.912201,164.909561 
	C272.248230,165.127151 250.580643,164.973465 228.915054,165.086212 
	C227.930237,165.091354 226.443909,166.140594 226.054840,167.066452 
	C223.883621,172.233337 221.888870,177.480103 220.006760,182.761215 
	C217.908020,188.650146 216.049988,194.625076 213.930588,200.506134 
	C213.662720,201.249405 212.445740,201.650650 210.863983,202.789719 
	C210.863983,189.444611 210.863983,177.353256 210.863983,165.264709 
	C195.071823,165.264709 179.666504,165.264709 163.863495,165.264709 
	C163.863495,187.267532 163.863495,209.008728 163.863495,230.727478 
	C145.056259,230.727478 126.650932,230.727478 107.847839,230.727478 
	C107.847839,208.716629 107.847839,186.975403 107.847839,165.280334 
	C88.040527,165.280334 68.635162,165.280334 49.283249,165.280334 
	C49.283249,225.965393 49.283249,286.369720 49.283249,347.000000 
	C64.208725,347.000000 78.852005,347.000000 94.492065,347.000000 
z"/>
<path fill="#087101" opacity="1.000000" stroke="none" 
	d="
M93.993668,347.000000 
	C78.852005,347.000000 64.208725,347.000000 49.283249,347.000000 
	C49.283249,286.369720 49.283249,225.965393 49.283249,165.280334 
	C68.635162,165.280334 88.040527,165.280334 107.847839,165.280334 
	C107.847839,186.975403 107.847839,208.716629 107.847839,230.727478 
	C126.650932,230.727478 145.056259,230.727478 163.863495,230.727478 
	C163.863495,209.008728 163.863495,187.267532 163.863495,165.264709 
	C179.666504,165.264709 195.071823,165.264709 210.863983,165.264709 
	C210.863983,177.353256 210.863983,189.444611 210.863983,202.789719 
	C212.445740,201.650650 213.662720,201.249405 213.930588,200.506134 
	C216.049988,194.625076 217.908020,188.650146 220.006760,182.761215 
	C221.888870,177.480103 223.883621,172.233337 226.054840,167.066452 
	C226.443909,166.140594 227.930237,165.091354 228.915054,165.086212 
	C250.580643,164.973465 272.248230,165.127151 293.912201,164.909561 
	C299.240997,164.856049 298.856354,169.442551 299.760651,171.914276 
	C302.727142,180.022797 304.564514,188.537582 307.038635,196.835770 
	C308.447418,201.560806 310.251068,206.168137 312.502075,210.944458 
	C312.502075,195.784515 312.502075,180.624573 312.502075,165.000000 
	C314.921783,165.000000 316.533478,165.000000 318.145142,165.000000 
	C337.478027,165.000000 356.811371,164.926743 376.143524,165.045959 
	C381.730347,165.080399 387.451691,165.011246 392.867767,166.149124 
	C401.950409,168.057297 411.177429,170.066299 419.716431,173.564117 
	C429.253174,177.470657 438.498169,183.084793 445.020660,191.013412 
	C451.271271,198.611557 457.015076,206.836197 459.396912,217.241364 
	C460.917023,223.882248 461.394073,230.775253 463.328094,237.093872 
	C466.318207,246.862976 465.355652,256.603729 464.617523,266.075745 
	C463.831024,276.168427 461.090149,286.463470 457.217621,295.851379 
	C453.992828,303.669037 447.481171,310.063385 443.185089,317.525574 
	C438.867554,325.025085 431.767822,329.287811 425.137329,333.734436 
	C417.614441,338.779572 408.742249,341.431732 399.969513,344.197266 
	C387.470581,348.137512 374.848877,346.784210 362.257904,346.929352 
	C340.261353,347.182953 318.258148,346.864014 296.261658,347.119568 
	C292.074341,347.168213 290.998688,344.747070 290.065460,341.898102 
	C289.116943,339.002625 288.652374,335.944855 288.030884,332.946777 
	C286.986725,327.909393 286.180969,322.809662 284.826660,317.858795 
	C284.498749,316.660126 282.431976,315.140869 281.145844,315.122833 
	C267.148926,314.926605 253.146851,315.102264 239.149643,314.916595 
	C236.240189,314.878021 235.514130,316.298462 235.002380,318.522614 
	C233.345505,325.723419 231.750427,332.940216 229.947922,340.104675 
	C229.416199,342.218170 228.275879,344.178589 227.185684,346.748474 
	C206.803391,346.748474 185.699463,346.748474 164.193970,346.748474 
	C164.193970,325.066956 164.193970,303.325684 164.193970,281.293427 
	C145.391647,281.293427 126.986015,281.293427 108.178299,281.293427 
	C108.178299,302.948914 108.178299,324.690186 108.178299,347.000000 
	C103.362770,347.000000 98.927422,347.000000 93.993668,347.000000 
M395.970459,281.293091 
	C396.979797,279.283997 398.565063,277.365021 398.896088,275.249786 
	C400.150879,267.231598 401.659790,259.158569 401.766266,251.088821 
	C401.836487,245.765533 400.519318,240.020813 398.281647,235.177017 
	C395.750214,229.697449 392.396118,224.288788 386.973145,220.804520 
	C383.996338,218.891922 381.241272,215.809784 378.033417,215.239487 
	C369.265198,213.680649 360.309845,213.174698 351.226257,212.230728 
	C351.226257,242.540588 351.226257,271.600891 351.226257,300.823456 
	C369.438568,302.182220 385.127869,298.287506 395.970459,281.293091 
M264.997345,241.624969 
	C263.464142,235.719223 261.930908,229.813477 260.397705,223.907730 
	C259.895752,223.881241 259.393829,223.854752 258.891907,223.828262 
	C254.825241,239.745621 250.758575,255.662979 246.657730,271.714081 
	C255.710495,271.714081 263.798218,271.714081 272.727081,271.714081 
	C270.070496,261.672180 267.535278,252.089081 264.997345,241.624969 
z"/>
<path fill="#000000" opacity="0.000000" stroke="none" 
	d="
M395.758606,281.628235 
	C385.127869,298.287506 369.438568,302.182220 351.226257,300.823456 
	C351.226257,271.600891 351.226257,242.540588 351.226257,212.230728 
	C360.309845,213.174698 369.265198,213.680649 378.033417,215.239487 
	C381.241272,215.809784 383.996338,218.891922 386.973145,220.804520 
	C392.396118,224.288788 395.750214,229.697449 398.281647,235.177017 
	C400.519318,240.020813 401.836487,245.765533 401.766266,251.088821 
	C401.659790,259.158569 400.150879,267.231598 398.896088,275.249786 
	C398.565063,277.365021 396.979797,279.283997 395.758606,281.628235 
z"/>
<path fill="#000000" opacity="0.000000" stroke="none" 
	d="
M264.998718,242.065475 
	C267.535278,252.089081 270.070496,261.672180 272.727081,271.714081 
	C263.798218,271.714081 255.710495,271.714081 246.657730,271.714081 
	C250.758575,255.662979 254.825241,239.745621 258.891907,223.828262 
	C259.393829,223.854752 259.895752,223.881241 260.397705,223.907730 
	C261.930908,229.813477 263.464142,235.719223 264.998718,242.065475 
z"/>
</svg>